<?xml version="1.0" standalone="no"?><!DOCTYPE svg PUBLIC "-//W3C//DTD SVG 1.1//EN" "http://www.w3.org/Graphics/SVG/1.1/DTD/svg11.dtd"><svg t="1504853143536" class="icon" style="" viewBox="0 0 1025 1024" version="1.1" xmlns="http://www.w3.org/2000/svg" p-id="3553" xmlns:xlink="http://www.w3.org/1999/xlink" width="40.0390625" height="40"><defs><style type="text/css"></style></defs><path d="M778.34536 522.990809" p-id="3554" fill="#FF6600"></path><path d="M633.91402 385.716467" p-id="3555" fill="#FF6600"></path><path d="M371.619414 463.575664" p-id="3556" fill="#FF6600"></path><path d="M205.752902 353.157966" p-id="3557" fill="#FF6600"></path><path d="M554.749085 879.882816" p-id="3558" fill="#FF6600"></path><path d="M381.2436 781.900322" p-id="3559" fill="#FF6600"></path><path d="M462.622967 540.693989 462.622967 345.60188l-28.10917 0c-13.148448 0-23.820498-10.67205-23.820498-23.820498l0-80.513651c0-13.149472 10.67205-23.820498 23.820498-23.820498l92.234589 0 0-28.680174-227.964764 0 0 32.919728 28.156242 0c13.149472 0 23.820498 10.67205 23.820498 23.820498l0 228.917461c0 6.478545-2.620685 12.624516-7.241931 17.103523-57.217086 55.311691-149.642009 158.932597-153.97673 201.523581-0.667195 6.383378 1.524725 16.4834 6.241138 21.676674 1.905394 2.143824 3.858884 2.953259 6.955405 2.953259l116.006991 0C353.523286 651.842327 432.418068 570.470123 462.622967 540.693989z" p-id="3560" fill="#FF6600"></path><path d="M516.762974 793.95588l112.736508 0c-3.841488-38.417946-18.126828-66.971231-22.121811-54.76013-4.344954 13.276361-14.296597 32.981126-14.296597 32.981126-26.546583 37.707772-21.925337-89.52897-21.925337-89.52897C525.600237 722.113717 517.122154 767.226125 516.762974 793.95588z" p-id="3561" fill="#FF6600"></path><path d="M512.000512 0.001023c-282.768896 0-511.999488 229.229569-511.999488 511.998465s229.230592 511.999488 511.999488 511.999488c282.769919 0 511.999488-229.230592 511.999488-511.999488S794.769408 0.001023 512.000512 0.001023zM825.413304 823.683919c-10.623954 11.719914-24.82129 17.912957-41.067283 17.912957l-426.248561 0c-15.912395 0-29.680967-5.954613-39.829084-17.150595-18.580152-20.580714-17.57936-49.737748-16.626662-59.12248l-5.725392 0-93.131004 0c-16.673735 0-31.300859-6.479568-42.353578-18.723415-16.10273-17.722622-19.914542-42.495817-18.247578-58.361141 6.813166-66.936438 123.010492-186.42062 160.981254-223.819355L303.165415 269.327782l-28.156242 0c-13.148448 0-23.820498-10.67205-23.820498-23.820498l0-80.561747c0-13.150495 10.67205-23.820498 23.820498-23.820498l275.558688 0c13.148448 0 23.820498 10.671026 23.820498 23.820498l0 52.500672 135.683103 0c13.149472 0 23.820498 10.67205 23.820498 23.820498l0 80.513651c0 13.149472-10.67205 23.820498-23.820498 23.820498l-28.10917 0 0 195.092108c37.970762 37.398734 154.168088 156.88394 160.981254 223.820378C844.612556 781.044839 841.039174 806.390061 825.413304 823.683919z" p-id="3562" fill="#FF6600"></path><path d="M641.612345 567.849438c-4.622269-4.526079-7.241931-10.719122-7.241931-17.150595L634.370414 321.781382c0-13.148448 10.67205-23.820498 23.820498-23.820498l28.108147 0 0-32.873679-227.916669 0 0 32.873679 28.108147 0c13.149472 0 23.820498 10.67205 23.820498 23.820498l0 228.917461c0 6.431473-2.620685 12.624516-7.241931 17.150595-57.217086 55.311691-149.642009 158.932597-153.97673 201.476509-0.952697 8.955967 1.094937 19.342514 4.526079 23.201398 0.571004 0.6191 1.333367 1.428534 4.477983 1.428534l102.676395 0c-12.501719-41.860345-17.903747-135.523468 133.258893-224.383196 0 0-6.942102 48.769701 53.385831 90.466317 2.131545 1.629102 11.247147 9.67535 15.252364 15.078402 27.780689 37.535857 30.020704 88.822889 25.487462 118.8395l96.186593 0c3.430119 0 4.669342-1.000792 5.717206-2.238992 4.287649-4.763486 6.193043-15.292273 5.478776-22.390941C791.254354 726.781012 698.829431 623.16113 641.612345 567.849438z" p-id="3563" fill="#FF6600"></path></svg>