<?xml version="1.0" standalone="no"?><!DOCTYPE svg PUBLIC "-//W3C//DTD SVG 1.1//EN" "http://www.w3.org/Graphics/SVG/1.1/DTD/svg11.dtd"><svg t="1504853722060" class="icon" style="" viewBox="0 0 1024 1024" version="1.1" xmlns="http://www.w3.org/2000/svg" p-id="7436" xmlns:xlink="http://www.w3.org/1999/xlink" width="40" height="40"><defs><style type="text/css"></style></defs><path d="M511.357792 85.253057C275.747883 85.253057 84.129194 276.871747 84.129194 512.481656s191.618689 427.228598 427.228598 427.228598S938.586391 748.091565 938.586391 512.481656 746.967701 85.253057 511.357792 85.253057z m-33.234242 648.870493c0 7.706491-6.261524 13.968015-13.968015 13.968015H284.096582c-7.706491 0-13.968015-6.261524-13.968015-13.968015V554.144873c0-7.706491 6.261524-13.968015 13.968015-13.968015H464.155535c7.706491 0 13.968015 6.261524 13.968015 13.968015v179.978677z m0-263.305112c0 7.706491-6.261524 13.968015-13.968015 13.968015H284.096582c-7.706491 0-13.968015-6.261524-13.968015-13.968015V290.759486c0-7.706491 6.261524-13.968015 13.968015-13.968015H464.155535c7.706491 0 13.968015 6.261524 13.968015 13.968015v180.058952z m274.383192 263.305112c0 7.706491-6.261524 13.968015-13.968015 13.968015H558.56005c-7.706491 0-13.968015-6.261524-13.968015-13.968015V554.144873c0-7.706491 6.261524-13.968015 13.968015-13.968015h180.058953c7.706491 0 13.968015 6.261524 13.968015 13.968015v179.978677z m0-263.305112c0 7.706491-6.261524 13.968015-13.968015 13.968015H558.56005c-7.706491 0-13.968015-6.261524-13.968015-13.968015V290.759486c0-7.706491 6.261524-13.968015 13.968015-13.968015h180.058953c7.706491 0 13.968015 6.261524 13.968015 13.968015v180.058952z" fill="#FF9900" p-id="7437"></path></svg>