<?xml version="1.0" standalone="no"?><!DOCTYPE svg PUBLIC "-//W3C//DTD SVG 1.1//EN" "http://www.w3.org/Graphics/SVG/1.1/DTD/svg11.dtd"><svg t="1502414983726" class="icon" style="" viewBox="0 0 1024 1024" version="1.1" xmlns="http://www.w3.org/2000/svg" p-id="956" xmlns:xlink="http://www.w3.org/1999/xlink" width="60" height="60"><defs><style type="text/css"></style></defs><path d="M445.848 827.678L635.5 497.825s17.055-28.313 54.576-27.63c16.428 0.299 40.933 0 63.588 39.284l74.884 126.343V209.55c0-42.626-34.635-77.308-77.202-77.308H212.054c-42.57 0-77.201 34.68-77.201 77.308V814.45c0 42.63 34.634 77.308 77.201 77.308h241.787c-18.567-17.692-14.814-47.707-7.993-64.08z m-181.502-521.04H679.34c13.78 0 24.996 11.232 24.996 25.034s-11.214 25.033-24.996 25.033H264.346c-13.785 0-25-11.23-25-25.033 0-13.804 11.215-25.033 25-25.033z m0 174.4h302.401c13.784 0 25 11.23 25 25.032 0 13.803-11.216 25.033-25 25.033h-302.4c-13.787 0-25.001-11.23-25.001-25.033 0-13.802 11.215-25.031 25-25.031z m-25 199.432c0-13.8 11.215-25.03 25-25.03h206.142c13.785 0 25 11.23 25 25.03 0 13.802-11.216 25.033-25 25.033H264.346c-13.785 0-25-11.23-25-25.033z" p-id="957" fill="#00CC00"></path><path d="M881.157 821.736L732.38 553.742c-9.701-17.454-24.072-27.454-39.465-27.454-15.392 0-29.777 10.011-39.452 27.48L504.84 821.707c-9.618 17.34-10.584 35.088-2.656 48.673 7.924 13.585 23.793 21.376 43.547 21.376h294.562c19.741 0 35.624-7.777 43.535-21.362 7.942-13.584 6.948-31.318-2.67-48.658zM693.013 631.945c11.658 0 21.216 8.92 21.216 19.797l-10.589 104.55c0 5.937-4.24 9.89-10.617 9.89-6.375 0-10.616-3.953-10.616-9.89l-10.613-104.55c0.002-10.891 9.56-19.797 21.22-19.797z m0.764 196.48c-12.03 0-21.784-9.827-21.784-21.952 0-12.124 9.754-21.951 21.784-21.951 12.033 0 21.785 9.828 21.785 21.95-0.001 12.126-9.753 21.954-21.785 21.954z" p-id="958" fill="#00CC00"></path></svg>