<?xml version="1.0" standalone="no"?><!DOCTYPE svg PUBLIC "-//W3C//DTD SVG 1.1//EN" "http://www.w3.org/Graphics/SVG/1.1/DTD/svg11.dtd"><svg t="1504853283947" class="icon" style="" viewBox="0 0 1024 1024" version="1.1" xmlns="http://www.w3.org/2000/svg" p-id="4324" xmlns:xlink="http://www.w3.org/1999/xlink" width="40" height="40"><defs><style type="text/css"></style></defs><path d="M865.051 236.849 681.484 236.849l0-45.707c0-41.721-33.827-75.559-75.586-75.559L423.566 115.583c-41.748 0-75.575 33.838-75.575 75.559l0 45.707L164.237 236.849c-57.674 0-104.44 46.756-104.44 104.429l0 458.12c0 57.672 46.766 104.454 104.44 104.454l700.637 0c57.672 0 104.449-46.782 104.449-104.454L969.323 365.595c0.112 1.995 0.177 3.996 0.177 6.017l0-30.334C969.5 283.605 922.724 236.849 865.051 236.849L865.051 236.849zM393.467 191.137c0-16.576 13.5-30.077 30.099-30.077l182.332 0c16.598 0 30.115 13.5 30.115 30.077l0 45.712L393.468 236.849 393.467 191.137 393.467 191.137zM710.672 585.621c-0.005-0.038-0.005-0.076-0.011-0.114-1.09 14.304-3.706 28.185-7.68 41.472 0 0.005 0 0.005-0.005 0.009-0.422 1.424-0.867 2.83-1.322 4.237-0.032 0.107-0.068 0.214-0.107 0.326-0.427 1.312-0.867 2.617-1.325 3.922-0.07 0.203-0.14 0.407-0.215 0.61-0.427 1.209-0.867 2.419-1.316 3.616-0.118 0.304-0.23 0.604-0.348 0.909-0.416 1.101-0.851 2.198-1.289 3.289-0.161 0.413-0.331 0.819-0.497 1.226-0.402 0.983-0.813 1.962-1.231 2.942-0.23 0.536-0.465 1.07-0.7 1.605-0.375 0.845-0.744 1.684-1.13 2.52-0.315 0.696-0.641 1.386-0.968 2.08-0.315 0.675-0.632 1.344-0.957 2.012-0.438 0.909-0.893 1.813-1.347 2.717-0.224 0.445-0.445 0.889-0.67 1.327-0.635 1.24-1.283 2.472-1.946 3.692-0.054 0.107-0.112 0.214-0.167 0.315-33.378 61.395-98.448 103.065-173.253 103.065-6.777 0-13.474-0.342-20.074-1.012-0.107-0.01-0.214-0.021-0.32-0.037-1.428-0.144-2.857-0.311-4.281-0.487-0.55-0.069-1.101-0.145-1.653-0.221-0.957-0.128-1.914-0.262-2.866-0.402-0.904-0.133-1.809-0.278-2.707-0.427-0.578-0.096-1.155-0.188-1.728-0.289-1.208-0.208-2.417-0.429-3.615-0.659-0.241-0.047-0.482-0.09-0.723-0.139-85.68-16.833-151.371-89.285-158.148-178.218-0.059 0.76-0.118 1.52-0.172 2.285-0.503-5.75-0.775-11.564-0.775-17.437 0-108.841 88.258-197.067 197.062-197.067 108.835 0 197.062 88.226 197.062 197.067C711.256 575.489 711.059 580.581 710.672 585.621L710.672 585.621zM638.274 524.856l-78.058 0 0-78.545c0-7.125-5.803-12.88-12.955-12.88l-65.033 0c-7.147 0-12.966 5.761-12.966 12.88l0 78.545-78.057 0c-7.121 0-12.897 5.803-12.897 12.965l0 65.012c0 7.168 5.77 12.971 12.897 12.971l78.057 0 0 77.571c0 7.136 5.819 12.908 12.966 12.908l65.033 0c7.152 0 12.955-5.772 12.955-12.908l0-77.571 78.058 0c7.136 0 12.891-5.803 12.891-12.971l0-65.012C651.165 530.659 645.41 524.856 638.274 524.856L638.274 524.856z" p-id="4325" fill="#169BD5"></path></svg>