<?xml version="1.0" standalone="no"?><!DOCTYPE svg PUBLIC "-//W3C//DTD SVG 1.1//EN" "http://www.w3.org/Graphics/SVG/1.1/DTD/svg11.dtd"><svg t="1504853386452" class="icon" style="" viewBox="0 0 1024 1024" version="1.1" xmlns="http://www.w3.org/2000/svg" p-id="5187" xmlns:xlink="http://www.w3.org/1999/xlink" width="40" height="40"><defs><style type="text/css"></style></defs><path d="M270.369792 352.679936 159.384576 574.646272l0 38.091776 73.373696 73.373696 108.20096 0 74.064896-74.063872 0-36.532224L303.60576 352.679936 270.369792 352.679936zM271.746048 589.504512l-86.555648 0 86.555648-173.1072L271.746048 589.504512zM301.472768 589.504512 301.472768 414.88384l87.313408 174.620672L301.472768 589.504512z" p-id="5188" fill="#9666FE"></path><path d="M716.850176 352.679936 605.86496 574.646272l0 38.091776 73.37472 73.373696 108.201984 0 74.063872-74.063872 0-36.532224L750.086144 352.679936 716.850176 352.679936zM718.226432 589.504512l-86.555648 0 86.555648-173.1072L718.226432 589.504512zM747.952128 589.504512 747.952128 414.88384l87.313408 174.620672L747.952128 589.504512z" p-id="5189" fill="#9666FE"></path><path d="M876.372992 0 144.05632 0c-79.432704 0-144.057344 64.623616-144.057344 144.05632l0 732.31872c0 79.43168 64.623616 144.05632 144.057344 144.05632l220.392448 0 0-96.610304L144.05632 923.821056c-26.164224 0-47.450112-21.28384-47.450112-47.446016L96.606208 144.055296c0-26.1632 21.285888-47.448064 47.450112-47.448064L876.372992 96.607232c26.1632 0 47.44704 21.284864 47.44704 47.448064l0 732.31872c0 26.162176-21.28384 47.446016-47.44704 47.446016L557.996032 923.820032 557.996032 372.996096l255.551488-128.072704 0-54.582272L706.833408 190.34112l-196.210688 98.333696L314.412032 190.34112 206.35136 190.34112l0 53.907456L461.389824 372.063232l-0.331776 648.367104L876.372992 1020.430336c79.432704 0 144.055296-64.623616 144.055296-144.05632L1020.428288 144.055296C1020.428288 64.623616 955.80672 0 876.372992 0z" p-id="5190" fill="#9666FE"></path></svg>