<?xml version="1.0" standalone="no"?><!DOCTYPE svg PUBLIC "-//W3C//DTD SVG 1.1//EN" "http://www.w3.org/Graphics/SVG/1.1/DTD/svg11.dtd"><svg t="1504853500869" class="icon" style="" viewBox="0 0 1024 1024" version="1.1" xmlns="http://www.w3.org/2000/svg" p-id="5989" xmlns:xlink="http://www.w3.org/1999/xlink" width="40" height="40"><defs><style type="text/css"></style></defs><path d="M772.218 68.479H667.829v156.394h104.389V68.479z m-417.299 0H250.535v156.394h104.384V68.479z m521.684 104.18h-52.131v104.306H615.699V172.659h-208.65v104.306H198.4V172.659h-52.13c-28.796 0-52.131 23.314-52.131 52.092v677.677c0 28.775 23.335 52.095 52.131 52.095h730.461c28.795 0 52.13-23.32 52.13-52.095V224.873c-0.124-28.9-23.459-52.214-52.258-52.214zM354.919 746.16H250.535V641.854h104.384V746.16z m0-208.618H250.535V433.237h104.384v104.305z m208.65 208.618H459.18V641.854h104.389V746.16z m0-208.618H459.18V433.237h104.389v104.305zM772.218 746.16H667.829V641.854h104.389V746.16z m0-208.618H667.829V433.237h104.389v104.305z" p-id="5990" fill="#9D9DF7" class=""></path></svg>