<?xml version="1.0" standalone="no"?><!DOCTYPE svg PUBLIC "-//W3C//DTD SVG 1.1//EN" "http://www.w3.org/Graphics/SVG/1.1/DTD/svg11.dtd"><svg t="1505287425617" class="icon" style="" viewBox="0 0 1024 1024" version="1.1" xmlns="http://www.w3.org/2000/svg" p-id="3243" xmlns:xlink="http://www.w3.org/1999/xlink" width="40" height="40"><defs><style type="text/css"></style></defs><path d="M511.990278 64.305585c-247.261375 0-447.704572 200.430892-447.704572 447.702602 0 247.25022 200.444221 447.686229 447.704572 447.686229 247.280818 0 447.725039-200.436008 447.725039-447.686229C959.715317 264.736477 759.271096 64.305585 511.990278 64.305585zM439.247623 314.457902c47.00852-23.64963 97.476979-24.033369 147.472652 0.060375 8.525513 5.408173 11.048066 15.658631 5.791127 29.703509-4.157863 13.761422-6.316105 21.449521-6.417416 32.689517l-31.964279 0c-0.110522-6.255471 1.362076-8.777921 4.308296-18.181081 3.259364-10.371208 1.472598-17.7165-4.520129-21.449521-26.969317-15.820314-55.7868-15.416108-82.382594 0.101307-6.366249 3.369747-8.151991 10.937097-5.155628 20.299325 3.097675 10.029424 4.792339 13.075807 4.63065 19.22997l-31.914135 0c-0.373522-11.724019-3.471197-17.97949-6.94137-32.16456C426.847714 329.026712 430.157222 318.65448 439.247623 314.457902zM325.737849 727.416188l-47.52224 0c-9.938757-2.52245-15.195696-10.453073-14.458886-23.024389l-0.211833-291.622824c-0.676433-16.304338 7.628037-22.599717 22.974165-21.974477l39.218794 0.161682L325.737849 727.416188zM674.047688 727.416188 350.821135 727.416188 350.821135 391.056464l323.226553 1.210571L674.047688 727.416188zM750.387411 727.416188 699.079806 727.416188 699.079806 392.367319l41.116081 0.161682c14.660485-2.057869 21.23959 6.779404 20.189635 24.295336l-0.061401 290.088888C760.9105 716.539466 757.439303 723.682144 750.387411 727.416188z" p-id="3244" fill="#F0A0ED"></path></svg>